<svg width="59" height="48" viewBox="0 0 59 48" fill="none" xmlns="http://www.w3.org/2000/svg">
<path d="M37.0048 26.3099C37.0391 30.697 33.5105 34.2812 29.1234 34.3156C24.7363 34.3499 21.1521 30.8213 21.1177 26.4342C21.0834 22.0471 24.612 18.4629 28.9991 18.4285C33.3862 18.3942 36.9704 21.9228 37.0048 26.3099Z" stroke="white" stroke-width="5" stroke-linecap="round" stroke-linejoin="round"/>
<path fill-rule="evenodd" clip-rule="evenodd" d="M34.1626 2.50017C35.1179 2.49268 36.0574 2.74375 36.8817 3.22679C37.7059 3.70982 38.3842 4.40682 38.8445 5.24394L40.15 7.61692C40.6103 8.45404 41.2886 9.15104 42.1128 9.63408C42.9371 10.1171 43.8766 10.3682 44.8319 10.3607L50.1197 10.3193C51.5242 10.3083 52.8755 10.8557 53.8764 11.8411C54.8773 12.8265 55.4458 14.1691 55.4568 15.5736L55.6432 39.4041C55.6542 40.8086 55.1068 42.1599 54.1214 43.1608C53.136 44.1617 51.7934 44.7302 50.3889 44.7412L8.02356 45.0726C6.61906 45.0836 5.26772 44.5362 4.26682 43.5508C3.26592 42.5655 2.69745 41.2228 2.68646 39.8183L2.50005 15.9878C2.48906 14.5833 3.03646 13.232 4.02182 12.2311C5.00718 11.2302 6.34979 10.6617 7.75429 10.6507L13.042 10.6094C13.9964 10.602 14.931 10.3368 15.747 9.84192C16.563 9.34704 17.2302 8.64085 17.6779 7.79801L18.9539 5.39424C19.4016 4.5514 20.0688 3.8452 20.8848 3.35033C21.7008 2.85545 22.6354 2.59029 23.5898 2.58287L34.1626 2.50017ZM29.1234 34.3156C33.5105 34.2812 37.0391 30.697 37.0048 26.3099C36.9704 21.9228 33.3862 18.3942 28.9991 18.4285C24.612 18.4629 21.0834 22.0471 21.1177 26.4342C21.1521 30.8213 24.7363 34.3499 29.1234 34.3156Z" stroke="white" stroke-width="5" stroke-linecap="round" stroke-linejoin="round"/>
</svg>
