<svg width="376" height="129" viewBox="0 0 376 129" fill="none" xmlns="http://www.w3.org/2000/svg">
<path d="M38.5 2.50666H106C106 2.50666 117.5 1.50664 117.5 14.0067C117.5 26.5067 106 26.5067 106 26.5067H41C41 26.5067 30 28.5066 30 39.5067C30 50.5067 41 53.5067 41 53.5067H83C83 53.5067 119 54.0067 119 91.5067C119 129.007 83 129.007 83 129.007H9C9 129.007 0 129.007 0 116.507C0 104.007 9 104.507 9 104.507H81C81 104.507 92 104.507 92 91.5067C92 78.5067 81 78.5067 81 78.5067H38.5C38.5 78.5067 4 75.0067 4 39.5067C4 4.00664 38.5 2.50666 38.5 2.50666Z" fill="#476EE7"/>
<path d="M180 18.5067L165 117.007C165 117.007 162.5 129.007 147.5 129.007C132.5 129.007 134 115.507 134 115.507L148 15.0067C148 15.0067 151 2.50666 165.5 2.50666C180 2.50667 180 18.5067 180 18.5067Z" fill="#476EE7"/>
<path d="M203 129.007C187 129.007 188.5 115.507 188.5 115.507L197.5 55.5066C197.5 55.5066 200.5 42.0066 214.5 44.0066C228.5 46.0066 228.5 55.5066 228.5 55.5066L219 117.007C219 117.007 219 129.007 203 129.007Z" fill="#476EE7"/>
<path fill-rule="evenodd" clip-rule="evenodd" d="M248.5 129.007H323.5C323.5 129.007 376 122.507 376 65.0066C376 7.50659 323.5 4.50659 323.5 4.50659H267.5C260.596 4.6968 258.027 6.59813 256 13.5066L241 119.507C240.455 125.656 242.414 127.548 248.5 129.007ZM277 84.0066L280.5 52.5066C281.229 46.6956 282.804 45.5178 286.5 45.0066H316.5C319.839 45.0257 321 48.5066 321 48.5066V57.0066C321.086 58.7241 321.812 58.6767 323.5 58.0066L340 47.0066C343.124 45.5642 343.867 46.192 344 49.0066L340 88.0066C339.453 89.0634 338.85 89.2765 336.5 88.0066L321.5 77.5066C319.663 76.6553 319.107 76.9638 318.5 78.0066V84.0066C318.083 88.4245 317.232 90.3923 311.5 90.5066H280.5C276.531 90.2412 276.363 88.2947 277 84.0066Z" fill="#476EE7"/>
<path fill-rule="evenodd" clip-rule="evenodd" d="M217 0.0065587C227.629 -0.2804 236.574 8.88971 236 19.5066C235.455 29.5795 227.084 37.2788 217 37.0066C207.2 36.742 199.53 29.2963 199 19.5066C198.44 9.15808 206.64 0.286264 217 0.0065587ZM217.5 28.5066V7.50659C217.5 7.50659 217.5 5.50659 216.5 5.50659C215.5 5.50659 215.5 7.50659 215.5 7.50659V28.5066C215.5 28.5066 215.5 30.5066 216.5 30.5066C217.5 30.5066 217.5 28.5066 217.5 28.5066ZM222.5 10.5066C223.5 10.5066 223.5 12.5066 223.5 12.5066V24.5066C223.5 24.5066 223.5 26.5066 222.5 26.5066C221.5 26.5066 221.5 24.5066 221.5 24.5066V12.5066C221.5 12.5066 221.5 10.5066 222.5 10.5066ZM229 16.5066C229 16.5066 229 15.5066 228 15.5066C227 15.5066 227 16.5066 227 16.5066V20.5066C227 20.5066 227 21.5066 228 21.5066C229 21.5066 229 20.5066 229 20.5066V16.5066ZM211 10.5066C210 10.5066 210 12.5066 210 12.5066V24.5066C210 24.5066 210 26.5066 211 26.5066C212 26.5066 212 24.5066 212 24.5066V18.5066V12.5066C212 12.5066 212 10.5066 211 10.5066ZM204.5 16.5066C204.5 16.5066 204.5 15.5066 205.5 15.5066C206.5 15.5066 206.5 16.5066 206.5 16.5066V20.5066C206.5 20.5066 206.5 21.5066 205.5 21.5066C204.5 21.5066 204.5 20.5066 204.5 20.5066V16.5066Z" fill="#476EE7"/>
</svg>
