<svg width="63" height="55" viewBox="0 0 63 55" fill="none" xmlns="http://www.w3.org/2000/svg">
<path fill-rule="evenodd" clip-rule="evenodd" d="M39.1271 1.00006H12.4581C9.48388 1.13231 8.81719 2.03399 8.19997 4.23176L1.02846 50.5528C0.837974 53.3161 1.60813 53.8627 3.71778 54H37.7825C37.7825 54 61.314 52.4919 61.9863 26.6382C62.6587 0.784612 39.1271 1.00006 39.1271 1.00006ZM22.0946 18.6666H35.093C36.6614 18.662 37.2163 18.8575 37.3341 19.7439V23.191C37.3686 23.601 37.4385 23.778 38.0064 23.6219L45.6261 19.0975C45.6261 19.0975 46.0744 18.8821 46.7467 19.0975C47.419 19.313 47.419 19.7439 47.419 19.7439L45.8503 36.3333C45.8503 36.3333 45.6262 37.1951 44.9538 37.1951C44.2815 37.1951 44.0574 36.9796 44.0574 36.9796L37.5582 32.2398C36.5909 31.9831 36.1881 32.0076 35.9894 32.6707V35.4715C35.7291 37.0784 35.3549 37.782 33.3001 37.8414H19.1812C17.6466 37.6875 17.0626 37.3171 17.1642 35.4715L19.1812 21.6829C19.5161 19.5125 20.0481 18.7239 22.0946 18.6666Z" fill="#476EE7"/>
<path d="M35.093 18.6666H22.0946C20.0481 18.7239 19.5161 19.5125 19.1812 21.6829L17.1642 35.4715C17.0626 37.3171 17.6466 37.6875 19.1812 37.8414H33.3001C35.3549 37.782 35.7291 37.0784 35.9894 35.4715V32.6707C36.1881 32.0076 36.5909 31.9831 37.5582 32.2398L44.0574 36.9796C44.0574 36.9796 44.2815 37.1951 44.9538 37.1951C45.6262 37.1951 45.8503 36.3333 45.8503 36.3333L47.419 19.7439C47.419 19.7439 47.419 19.313 46.7467 19.0975C46.0744 18.8821 45.6261 19.0975 45.6261 19.0975L38.0064 23.6219C37.4385 23.778 37.3686 23.601 37.3341 23.191V19.7439C37.2163 18.8575 36.6614 18.662 35.093 18.6666Z" fill="#476EE7"/>
<path fill-rule="evenodd" clip-rule="evenodd" d="M39.1271 1.00006H12.4581C9.48388 1.13231 8.81719 2.03399 8.19997 4.23176L1.02846 50.5528C0.837974 53.3161 1.60813 53.8627 3.71778 54H37.7825C37.7825 54 61.314 52.4919 61.9863 26.6382C62.6587 0.784612 39.1271 1.00006 39.1271 1.00006ZM22.0946 18.6666H35.093C36.6614 18.662 37.2163 18.8575 37.3341 19.7439V23.191C37.3686 23.601 37.4385 23.778 38.0064 23.6219L45.6261 19.0975C45.6261 19.0975 46.0744 18.8821 46.7467 19.0975C47.419 19.313 47.419 19.7439 47.419 19.7439L45.8503 36.3333C45.8503 36.3333 45.6262 37.1951 44.9538 37.1951C44.2815 37.1951 44.0574 36.9796 44.0574 36.9796L37.5582 32.2398C36.5909 31.9831 36.1881 32.0076 35.9894 32.6707V35.4715C35.7291 37.0784 35.3549 37.782 33.3001 37.8414H19.1812C17.6466 37.6875 17.0626 37.3171 17.1642 35.4715L19.1812 21.6829C19.5161 19.5125 20.0481 18.7239 22.0946 18.6666Z" stroke="white" stroke-width="2"/>
<path d="M35.093 18.6666H22.0946C20.0481 18.7239 19.5161 19.5125 19.1812 21.6829L17.1642 35.4715C17.0626 37.3171 17.6466 37.6875 19.1812 37.8414H33.3001C35.3549 37.782 35.7291 37.0784 35.9894 35.4715V32.6707C36.1881 32.0076 36.5909 31.9831 37.5582 32.2398L44.0574 36.9796C44.0574 36.9796 44.2815 37.1951 44.9538 37.1951C45.6262 37.1951 45.8503 36.3333 45.8503 36.3333L47.419 19.7439C47.419 19.7439 47.419 19.313 46.7467 19.0975C46.0744 18.8821 45.6261 19.0975 45.6261 19.0975L38.0064 23.6219C37.4385 23.778 37.3686 23.601 37.3341 23.191V19.7439C37.2163 18.8575 36.6614 18.662 35.093 18.6666Z" stroke="white" stroke-width="2"/>
</svg>
